# xmcd
#
# Track frame offsets: 
#        151
#        15836
#        30605
#        47260
#        69013
#        83568
#        101895
#        116912
#        129911
#        147902
#        166115
#        181280
#        197371
#        219742
#        242055
#        257024
#        273411
#        290698
#
# Disc length: 4067 seconds
#
# Revision: 2
# Processed by: cddbd v1.5.1PL0 Copyright (c) Steve Scherf et al.
# Submitted via: ExactAudioCopy v0.95a5
#
DISCID=f00fe112
DTITLE=Arabesque - Vol1 CD1
DYEAR=2001
DGENRE=Disco
TTITLE0=Hello, Mr. Monkey
TTITLE1=In The Hit Of The Disco Night
TTITLE2=Roller Star
TTITLE3=Moorea
TTITLE4=Six Times A Day
TTITLE5=It's So Hard To Leave You
TTITLE6=Once In A Blue Moon
TTITLE7=Prison Of Love
TTITLE8=Give It Up
TTITLE9=Plastic Heart
TTITLE10=The Only Night
TTITLE11=Surfing Bahama
TTITLE12=Catch Me Tiger
TTITLE13=Hell Diver
TTITLE14=Parties In A Penthouse
TTITLE15=A New Sensation
TTITLE16=Rock Me After Midnight
TTITLE17=Jingle Jangle Joe
EXTD=
EXTT0=
EXTT1=
EXTT2=
EXTT3=
EXTT4=
EXTT5=
EXTT6=
EXTT7=
EXTT8=
EXTT9=
EXTT10=
EXTT11=
EXTT12=
EXTT13=
EXTT14=
EXTT15=
EXTT16=
EXTT17=
PLAYORDER=
